# xmcd
#
# Track frame offsets: 
#        150
#        18900
#        34939
#        47884
#        71998
#        90818
#        106906
#        123445
#        149789
#        168977
#
# Disc length: 2460 seconds
#
# Revision: 0
# Processed by: cddbd v1.5.2PL0 Copyright (c) Steve Scherf et al.
# Submitted via: ExactAudioCopy v1.0b1
#
DISCID=88099a0a
DTITLE=Theodore Ziras - Hyperpyrexia
DYEAR=2007
DGENRE=Neoclassical Metal
TTITLE0=Child Of Scotland
TTITLE1=Such And Such
TTITLE2=Rapid Eye Movement
TTITLE3=Solitude
TTITLE4=Seven Courses
TTITLE5=Salvation
TTITLE6=Number One
TTITLE7=Night Of The Dead
TTITLE8=Hyperpyrexia
TTITLE9=Go East
EXTD=
EXTT0=
EXTT1=
EXTT2=
EXTT3=
EXTT4=
EXTT5=
EXTT6=
EXTT7=
EXTT8=
EXTT9=
PLAYORDER=
